<?xml version="1.0"?>
<svg width="164" height="26" xmlns="http://www.w3.org/2000/svg" xmlns:svg="http://www.w3.org/2000/svg">
 <g class="layer">
  <title>Layer 1</title>
  <path d="m23.2247,1.27589c0.1232,-0.13922 0.1915,-0.32058 0.1918,-0.50877c0,-0.20234 -0.0777,-0.39648 -0.2163,-0.54016c-0.1386,-0.14368 -0.3268,-0.22525 -0.5236,-0.22696l-0.0091,0l-12.3571,0.00648l-0.0091,0c-0.1753,-0.00003 -0.34883,0.03722 -0.50954,0.10942c-0.16071,0.0722 -0.30515,0.17778 -0.42426,0.31012c-0.81554,0.84627 -2.90445,2.98284 -6.67344,6.64932c-5.04025,4.90276 -1.46237,9.74296 -1.46237,9.74296l4.60973,4.7387c-1.08155,-1.1881 0.24571,-2.7547 0.24571,-2.7547l17.08997,-17.471c0.0126,-0.01223 0.0252,-0.02518 0.0371,-0.03814l0.0119,-0.01295l-0.0014,-0.00432z" fill="#00A3FF" id="svg_2"/>
  <path d="m23.8019,24.7198l-0.0042,-0.0044l-10.0763,-10.3453c-0.0714,-0.0722 -0.1559,-0.1293 -0.2487,-0.1678c-0.0929,-0.0385 -0.1922,-0.0578 -0.2923,-0.0568c-0.1002,0.0011 -0.1991,0.0225 -0.2912,0.063c-0.092,0.0406 -0.1753,0.0994 -0.2452,0.1731l-5.32866,5.449c-1.35177,1.6681 -0.54043,2.5274 -0.54043,2.5274l3.13896,3.3426c0.08021,0.0934 0.17893,0.1681 0.28953,0.2192c0.1106,0.051 0.2305,0.0771 0.3517,0.0766l12.6727,0c0.0084,0 0.0161,0 0.0252,0c0.1435,-0.0009 0.2837,-0.0444 0.4037,-0.1252c0.1199,-0.0809 0.2146,-0.1957 0.2726,-0.3306c0.058,-0.1349 0.0768,-0.2841 0.0542,-0.4298c-0.0226,-0.1456 -0.0857,-0.2814 -0.1816,-0.391z" fill="white" id="svg_3"/>
  <text fill="#ffffff" font-family="Fantasy" font-size="24" id="svg_4" stroke-width="0" text-anchor="middle" transform="matrix(0.963582 0 0 0.778508 614.491 11.0929)" x="-540.262668" xml:space="preserve" y="11.260614">SteamService</text>
 </g>
</svg>