<?xml version="1.0"?>
<svg width="164" height="26" xmlns="http://www.w3.org/2000/svg" xmlns:svg="http://www.w3.org/2000/svg">
 <g class="layer">
  <title>Layer 1</title>
  <path d="m23.2247,1.27589c0.1232,-0.13922 0.1915,-0.320579 0.1918,-0.508771c0,-0.202335 -0.0777,-0.39648 -0.2163,-0.540158c-0.1386,-0.143678 -0.3268,-0.225253 -0.5236,-0.226961l-0.0091,0l-12.3571,0.006476l-0.0091,0c-0.1753,-0.00003 -0.34883,0.037225 -0.50954,0.109424c-0.16071,0.072199 -0.30515,0.177782 -0.42426,0.310117c-0.81554,0.846273 -2.90445,2.982843 -6.67344,6.649323c-5.04025,4.90276 -1.46237,9.74296 -1.46237,9.74296l4.60973,4.7387c-1.08155,-1.1881 0.24571,-2.7547 0.24571,-2.7547l17.08997,-17.471c0.0126,-0.01223 0.0252,-0.02518 0.0371,-0.03814l0.0119,-0.01295l-0.0014,-0.00432z" fill="#00A3FF" id="svg_2"/>
  <path d="m23.8021,24.7198l-0.0042,-0.0044l-10.0763,-10.3453c-0.0713,-0.0722 -0.1558,-0.1293 -0.2487,-0.1678c-0.0928,-0.0386 -0.1922,-0.0579 -0.2923,-0.0568c-0.1001,0.0011 -0.1991,0.0225 -0.2911,0.063c-0.0921,0.0405 -0.1754,0.0994 -0.2453,0.1731l0,0l-5.32862,5.449c-1.35176,1.6681 -0.54042,2.5273 -0.54042,2.5273l3.13895,3.3427c0.08021,0.0934 0.17889,0.1681 0.28949,0.2192c0.1106,0.051 0.2305,0.0771 0.3517,0.0766l12.6728,0c0.0084,0 0.0161,0 0.0252,0c0.1434,-0.0009 0.2836,-0.0444 0.4036,-0.1252c0.12,-0.0809 0.2147,-0.1957 0.2727,-0.3306c0.058,-0.1349 0.0768,-0.2841 0.0542,-0.4298c-0.0226,-0.1456 -0.0857,-0.2814 -0.1817,-0.391l0,0z" fill="#3F4254" id="svg_3"/>
  <text fill="#3f4254" font-family="Fantasy" font-size="24" id="svg_5" stroke-width="0" text-anchor="middle" transform="matrix(0.947273 0 0 0.829442 1.38455 2.61358)" x="98.694338" xml:space="preserve" y="22.022185">SteamService</text>
 </g>
</svg>